<?xml version="1.0" encoding="UTF-8" standalone="no"?>
<!-- Created with Inkscape (http://www.inkscape.org/) -->

<svg
   xmlns:dc="http://purl.org/dc/elements/1.1/"
   xmlns:cc="http://creativecommons.org/ns#"
   xmlns:rdf="http://www.w3.org/1999/02/22-rdf-syntax-ns#"
   xmlns:svg="http://www.w3.org/2000/svg"
   xmlns="http://www.w3.org/2000/svg"
   xmlns:sodipodi="http://sodipodi.sourceforge.net/DTD/sodipodi-0.dtd"
   xmlns:inkscape="http://www.inkscape.org/namespaces/inkscape"
   width="793.70081"
   height="1122.5197"
   viewBox="0 0 210 297"
   version="1.1"
   id="svg8"
   inkscape:version="0.92.1 r15371"
   sodipodi:docname="logo design course.svg">
  <defs
     id="defs2">
    <inkscape:path-effect
       fuse_tolerance="0"
       vertical_pattern="false"
       prop_units="false"
       tang_offset="0"
       normal_offset="0"
       spacing="0"
       scale_y_rel="false"
       prop_scale="0.26458333"
       copytype="single_stretched"
       pattern="m 19.05,5 c 0,-2.76 2.24,-5 5,-5 2.76,0 5,2.24 5,5 0,2.76 -2.24,5 -5,5 -2.76,0 -5,-2.24 -5,-5 z"
       is_visible="true"
       id="path-effect5983"
       effect="skeletal" />
    <inkscape:path-effect
       effect="skeletal"
       id="path-effect5979"
       is_visible="true"
       pattern="M 0,5 C 0,2.24 2.24,0 5,0 7.76,0 10,2.24 10,5 10,7.76 7.76,10 5,10 2.24,10 0,7.76 0,5 Z"
       copytype="single_stretched"
       prop_scale="0.26458333"
       scale_y_rel="false"
       spacing="0"
       normal_offset="0"
       tang_offset="0"
       prop_units="false"
       vertical_pattern="false"
       fuse_tolerance="0" />
    <inkscape:path-effect
       effect="skeletal"
       id="path-effect5975"
       is_visible="true"
       pattern="M 0,5 C 0,2.24 2.24,0 5,0 7.76,0 10,2.24 10,5 10,7.76 7.76,10 5,10 2.24,10 0,7.76 0,5 Z"
       copytype="single_stretched"
       prop_scale="0.26458333"
       scale_y_rel="false"
       spacing="0"
       normal_offset="0"
       tang_offset="0"
       prop_units="false"
       vertical_pattern="false"
       fuse_tolerance="0" />
    <inkscape:path-effect
       effect="skeletal"
       id="path-effect5969"
       is_visible="true"
       pattern="M 0,5 C 0,2.24 2.24,0 5,0 7.76,0 10,2.24 10,5 10,7.76 7.76,10 5,10 2.24,10 0,7.76 0,5 Z"
       copytype="single_stretched"
       prop_scale="0.26458333"
       scale_y_rel="false"
       spacing="0"
       normal_offset="0"
       tang_offset="0"
       prop_units="false"
       vertical_pattern="false"
       fuse_tolerance="0" />
    <inkscape:path-effect
       effect="skeletal"
       id="path-effect5955"
       is_visible="true"
       pattern="M 0,5 C 0,2.24 2.24,0 5,0 7.76,0 10,2.24 10,5 10,7.76 7.76,10 5,10 2.24,10 0,7.76 0,5 Z"
       copytype="single_stretched"
       prop_scale="0.26458333"
       scale_y_rel="false"
       spacing="0"
       normal_offset="0"
       tang_offset="0"
       prop_units="false"
       vertical_pattern="false"
       fuse_tolerance="0" />
    <inkscape:path-effect
       effect="skeletal"
       id="path-effect5951"
       is_visible="true"
       pattern="m -34.536581,-18.198996 c 0,-2.76 2.24,-5 5,-5 2.76,0 5,2.24 5,5 0,2.76 -2.24,5.000001 -5,5.000001 -2.76,0 -5,-2.240001 -5,-5.000001 z"
       copytype="single_stretched"
       prop_scale="0.26458333"
       scale_y_rel="false"
       spacing="0"
       normal_offset="0"
       tang_offset="0"
       prop_units="false"
       vertical_pattern="false"
       fuse_tolerance="0" />
    <inkscape:path-effect
       effect="skeletal"
       id="path-effect5947"
       is_visible="true"
       pattern="m -9.7286108,6.4967094 c 0,-2.76 2.24,-5 5,-5 2.76,0 4.99999998,2.24 4.99999998,5 0,2.76 -2.23999998,4.9999996 -4.99999998,4.9999996 -2.76,0 -5,-2.2399996 -5,-4.9999996 z"
       copytype="single_stretched"
       prop_scale="0.26458333"
       scale_y_rel="false"
       spacing="0"
       normal_offset="0"
       tang_offset="0"
       prop_units="false"
       vertical_pattern="false"
       fuse_tolerance="0" />
    <inkscape:path-effect
       effect="skeletal"
       id="path-effect5943"
       is_visible="true"
       pattern="m 41.274997,36.75 c 0,-2.76 2.24,-5 5,-5 2.76,0 5,2.24 5,5 0,2.76 -2.24,5 -5,5 -2.76,0 -5,-2.24 -5,-5 z"
       copytype="single_stretched"
       prop_scale="0.26458333"
       scale_y_rel="false"
       spacing="0"
       normal_offset="0"
       tang_offset="0"
       prop_units="false"
       vertical_pattern="false"
       fuse_tolerance="0" />
    <inkscape:path-effect
       effect="skeletal"
       id="path-effect5939"
       is_visible="true"
       pattern="M 0,5 C 0,2.24 2.24,0 5,0 7.76,0 10,2.24 10,5 10,7.76 7.76,10 5,10 2.24,10 0,7.76 0,5 Z"
       copytype="single_stretched"
       prop_scale="0.26458333"
       scale_y_rel="false"
       spacing="0"
       normal_offset="0"
       tang_offset="0"
       prop_units="false"
       vertical_pattern="false"
       fuse_tolerance="0" />
    <inkscape:path-effect
       effect="skeletal"
       id="path-effect5935"
       is_visible="true"
       pattern="m 6.3863529,7.778125 c 0,-2.76 2.2399999,-5 5.0000001,-5 2.76,0 5,2.24 5,5 0,2.76 -2.24,5 -5,5 -2.7600002,0 -5.0000001,-2.24 -5.0000001,-5 z"
       copytype="single_stretched"
       prop_scale="0.054025176"
       scale_y_rel="false"
       spacing="0"
       normal_offset="0"
       tang_offset="0"
       prop_units="false"
       vertical_pattern="false"
       fuse_tolerance="0" />
    <inkscape:path-effect
       effect="skeletal"
       id="path-effect5923"
       is_visible="true"
       pattern="m -49.164199,-144.00157 c 0,-2.76 2.24,-5 5,-5 2.76,0 5,2.24 5,5 0,2.76 -2.24,5 -5,5 -2.76,0 -5,-2.24 -5,-5 z"
       copytype="single_stretched"
       prop_scale="0.26458333"
       scale_y_rel="false"
       spacing="0"
       normal_offset="0"
       tang_offset="0"
       prop_units="false"
       vertical_pattern="false"
       fuse_tolerance="0" />
  </defs>
  <sodipodi:namedview
     id="base"
     pagecolor="#ffffff"
     bordercolor="#666666"
     borderopacity="1.0"
     inkscape:pageopacity="0.0"
     inkscape:pageshadow="2"
     inkscape:zoom="0.70710678"
     inkscape:cx="-1725.7069"
     inkscape:cy="770.12792"
     inkscape:document-units="px"
     inkscape:current-layer="layer1"
     showgrid="false"
     units="px"
     showborder="false"
     inkscape:window-width="1920"
     inkscape:window-height="1017"
     inkscape:window-x="1358"
     inkscape:window-y="-8"
     inkscape:window-maximized="1"
     inkscape:snap-global="false"
     inkscape:object-paths="true"
     inkscape:snap-intersection-paths="true"
     inkscape:snap-smooth-nodes="true" />
  <metadata
     id="metadata5">
    <rdf:RDF>
      <cc:Work
         rdf:about="">
        <dc:format>image/svg+xml</dc:format>
        <dc:type
           rdf:resource="http://purl.org/dc/dcmitype/StillImage" />
        <dc:title></dc:title>
      </cc:Work>
    </rdf:RDF>
  </metadata>
  <g
     inkscape:label="Layer 1"
     inkscape:groupmode="layer"
     id="layer1">
    <circle
       style="opacity:1;vector-effect:none;fill:#626262;fill-opacity:1;stroke:none;stroke-width:0.26458332;stroke-linecap:round;stroke-linejoin:round;stroke-miterlimit:4;stroke-dasharray:none;stroke-dashoffset:0;stroke-opacity:1"
       id="path5919"
       cx="-27.516666"
       cy="135.60414"
       r="37.306248" />
    <path
       style="fill:#626262;stroke:none;stroke-width:0.26458332px;stroke-linecap:butt;stroke-linejoin:miter;stroke-opacity:1;fill-opacity:1"
       d="m -164.86749,96.432175 c -0.008,-0.0028 -0.0134,-0.01286 -0.0162,-0.03007 0,0 0,0 0,0 -0.001,-0.02186 0.001,-0.0531 0.007,-0.09361 0,0 0,0 0,0 0.011,-0.08063 0.035,-0.198336 0.0715,-0.35208 0,0 0,0 0,0 l 0,-10e-7 c 0.0722,-0.303985 0.19451,-0.753835 0.36205,-1.338474 l 0,0 c 0.32403,-1.130672 0.84349,-2.854012 1.49656,-5.015427 l 0,0 c 1.26457,-4.185277 3.08531,-10.187378 5.24984,-17.792239 l 0,0 c 3.63351,-12.767062 8.98824,-32.450937 12.84489,-53.884333 l 0,0 c 1.60759,-8.9362819 3.06444,-18.72207349 3.76637,-28.789497 l 0,0 c 0,-4e-6 0,-8e-6 0,-1.3e-5 0.55871,-8.066112 0.7327,-16.652916 -0.54017,-25.092704 l 0,0 c -0.50892,-3.372195 -1.25464,-6.749 -2.43916,-9.96754 l 0,0 c -1.0069,-2.726726 -2.32135,-5.362645 -4.11023,-7.616075 l 0,0 c -1.60519,-2.026364 -3.61727,-3.75924 -5.92291,-4.920583 -2.25098,-1.148051 -4.79982,-1.760203 -7.41194,-1.948073 -0.23262,-0.01673 -0.46546,-0.03008 -0.69835,-0.04013 -2.82898,-0.109124 -5.64862,0.270905 -8.17045,1.307268 l 0,0 c -2.37085,0.960283 -4.4981,2.508934 -6.24727,4.380189 l 0,0 c -1.94927,2.080956 -3.46092,4.57843 -4.67623,7.190409 l 0,0 c -1.43074,3.083884 -2.44073,6.35978 -3.21643,9.650077 l 0,0 c -1.94096,8.23665 -2.46378,16.735905 -2.56457,24.749533 l 0,0 c 0,0 0,1.2e-5 0,1.2e-5 -0.12126,10.0057867 0.52647,19.7938631 1.3915,28.752146 2.07649,21.494883 5.77562,41.382276 8.331,54.284534 l 0,0 c 1.5233,7.690315 2.83661,13.76931 3.74692,18.006286 l 0,0 c 0.4703,2.188992 0.84385,3.933569 1.07235,5.077242 l 0,0 c 0.11815,0.591319 0.20252,1.045755 0.2491,1.352014 l 0,0 c 0,0 0,1e-6 0,1e-6 0.002,0.16082 0.011,0.279725 0.0178,0.360054 0,0 0,10e-7 0,10e-7 0,0 0,0 0,0 -0.002,0.04159 -2.7e-4,0.0721 0.002,0.09236 0.001,0.01014 0.002,0.01769 0.003,0.02274 0.002,0.0077 0.002,0.0077 0.002,0.0077 0,0 0,2e-6 -4.1e-4,1.02e-4 -0.004,-0.01246 -0.006,-0.0196 -0.0106,-0.02894 -0.008,-0.01865 -0.0219,-0.046 -0.0439,-0.08128 0,0 0,0 0,0 0,0 0,-10e-7 0,-10e-7 -0.0335,-0.07315 -0.0846,-0.18151 -0.16076,-0.322986 0,0 0,-10e-7 0,-10e-7 l 0,0 c -0.10941,-0.292293 -0.25465,-0.727493 -0.43448,-1.305881 l 0,0 c -0.35504,-1.141926 -0.83389,-2.804505 -1.42549,-4.996382 l 0,0 c -1.13009,-4.186941 -2.65431,-10.233892 -4.37212,-17.897019 l 0,0 c -2.9025,-12.946567 -6.89546,-32.654313 -9.20472,-54.344256 -0.95896,-9.0036378 -1.68767,-18.8641654 -1.62764,-29.000654 0,0 0,-1.2e-5 0,-1.2e-5 0.0443,-8.105719 0.54574,-16.783142 2.51382,-25.313821 l 0,0 c 0.78709,-3.413075 1.84344,-6.857145 3.35894,-10.158573 l 0,0 c 1.28311,-2.802792 2.94193,-5.53223 5.12307,-7.888503 l 0,0 c 1.97752,-2.132284 4.41311,-3.899515 7.17578,-5.033196 l 0,0 c 2.94249,-1.19253 6.13179,-1.639749 9.27622,-1.504799 0.25873,0.01003 0.51775,0.02399 0.77688,0.04198 2.90977,0.202065 5.7953,0.910046 8.41988,2.232324 2.68228,1.36591 4.98425,3.341686 6.79615,5.64689 l 0,0 c 1.99791,2.546751 3.44055,5.425974 4.4998,8.348543 l 0,0 c 1.25164,3.442393 2.03022,6.990766 2.54079,10.486411 l 0,0 c 1.27667,8.735351 1.06743,17.498403 0.4453,25.651951 0,0 0,1.2e-5 0,1.2e-5 -0.77309,10.19302046 -2.31624,20.0446953 -4.02102,29.018719 -4.10421,21.60938 -9.73759,41.090145 -13.72192,53.872918 l 0,0 c -2.35666,7.561408 -4.38597,13.514922 -5.86629,17.631755 l 0,0 c -0.77478,2.154704 -1.3927,3.786693 -1.84335,4.905577 l 0,0 c -0.22823,0.56666 -0.40991,0.992236 -0.54381,1.277111 l 0,10e-7 c 0,0 0,0 0,0 -0.0673,0.143244 -0.12216,0.249927 -0.16424,0.319836 0,0 -1e-5,1e-6 -1e-5,1e-6 -0.0211,0.03507 -0.039,0.06081 -0.0536,0.07717 0,0 0,0 0,0 -0.013,0.01163 -0.0236,0.01606 -0.0316,0.01325 z"
       id="path5921"
       inkscape:connector-curvature="0"
       inkscape:path-effect="#path-effect5923"
       inkscape:original-d="m -164.87015,96.43967 c 0,0 55.41611,-156.056784 2.7156,-158.210151 -52.24999,-2.134942 -10.11371,156.554401 -10.11371,156.554401"
       sodipodi:nodetypes="cac" />
    <g
       id="g5931"
       transform="translate(0.67353815)"
       style="stroke:#626262;stroke-opacity:1">
      <path
         sodipodi:nodetypes="sssss"
         inkscape:connector-curvature="0"
         id="path5925"
         d="m -172.82554,-44.255919 c 2.00841,0.09015 4.46512,2.303305 4.22937,4.299864 -0.23393,1.981229 -3.12417,3.588317 -5.07525,3.172031 -1.68894,-0.360356 -3.12684,-2.589217 -2.89007,-4.299864 0.22398,-1.618215 2.10395,-3.245289 3.73595,-3.172031 z"
         style="fill:none;stroke:#626262;stroke-width:1.32291663;stroke-linecap:butt;stroke-linejoin:miter;stroke-miterlimit:4;stroke-dasharray:none;stroke-opacity:1" />
      <path
         style="fill:none;stroke:#626262;stroke-width:1.32291663;stroke-linecap:butt;stroke-linejoin:miter;stroke-miterlimit:4;stroke-dasharray:none;stroke-opacity:1"
         d="m -156.68596,-44.255919 c 2.00841,0.09015 4.46512,2.303305 4.22937,4.299864 -0.23393,1.981229 -3.12417,3.588317 -5.07525,3.172031 -1.68894,-0.360356 -3.12684,-2.589217 -2.89007,-4.299864 0.22398,-1.618215 2.10395,-3.245289 3.73595,-3.172031 z"
         id="path5927"
         inkscape:connector-curvature="0"
         sodipodi:nodetypes="sssss" />
    </g>
    <path
       style="fill:#626262;fill-opacity:1;stroke:none;stroke-width:0.13401996px;stroke-linecap:butt;stroke-linejoin:miter;stroke-opacity:1"
       d="m -169.47889,-22.959521 c 0.0867,-0.1115 2.11867,1.426849 5.06529,1.371732 0,0 0,0 0,0 0.16561,-0.0028 0.3327,-0.0095 0.50142,-0.02005 3.18916,-0.199337 5.64783,-1.486991 5.7105,-1.351687 -0.003,-0.0063 -2.22176,1.666556 -5.67635,1.889376 -0.17723,0.01143 -0.35306,0.01826 -0.52748,0.02055 0,0 0,0 0,0 -3.37384,0.03911 -5.11727,-1.853462 -5.07338,-1.90992 z"
       id="path5933"
       inkscape:connector-curvature="0"
       inkscape:path-effect="#path-effect5935"
       inkscape:original-d="m -169.47889,-22.959521 c 2.96062,2.301397 6.79854,2.07414 11.2772,0"
       sodipodi:nodetypes="cc" />
    <path
       style="fill:#626262;fill-opacity:1;stroke:none;stroke-width:0.26458332px;stroke-linecap:butt;stroke-linejoin:miter;stroke-opacity:1"
       d="m -348.09719,149.57409 c -0.007,0.004 -0.0177,0.004 -0.0312,-0.002 -0.0131,-0.006 -0.0292,-0.0166 -0.0481,-0.0322 0,0 0,0 0,0 -0.0377,-0.0311 -0.0866,-0.0815 -0.14665,-0.1511 0,0 0,0 0,0 l 0,0 c -0.11908,-0.13805 -0.28038,-0.34992 -0.48272,-0.6359 l 0,0 0,0 c -0.39718,-0.56136 -0.94225,-1.39306 -1.62378,-2.4998 l 0,0 c -1.28189,-2.08167 -3.05428,-5.14647 -5.08913,-9.06116 l 0,-1e-5 0,0 c -3.27777,-6.30291 -8.10256,-16.31419 -11.22736,-27.58653 l 0,0 c -1.24061,-4.46802 -2.30722,-9.47951 -2.52185,-14.70929 l 0,0 c -0.1822,-4.133807 0.21091,-8.686628 2.08759,-12.880091 l 0,0 c 0.83797,-1.852867 1.99591,-3.60555 3.47187,-5.112067 l 0,0 c 1.53877,-1.56186 3.37958,-2.818282 5.38687,-3.740877 5.03813,-2.287907 10.66003,-2.687658 16.22297,-2.30314 0.22877,0.01581 0.45686,0.0329 0.68422,0.05118 5.78903,0.413228 11.49978,1.720181 16.33404,4.773327 l 0,0 c 3.84947,2.459628 6.7446,6.079404 8.32933,10.111313 l 0,0 c 1.6942,4.365232 2.02825,8.992721 1.77515,13.220934 l 0,0 0,7e-6 0,0 c -0.29881,5.157849 -1.41397,10.072449 -2.7144,14.446459 -3.20892,10.80621 -8.06911,20.23146 -11.39147,26.16288 l 0,0 c -2.04195,3.64722 -3.81557,6.48272 -5.09739,8.40401 -0.68036,1.01977 -1.22327,1.78292 -1.61823,2.29662 l 0,0 c -0.20108,0.26153 -0.36099,0.45454 -0.47867,0.57963 l 0,0 c -0.0594,0.0631 -0.1076,0.10852 -0.14455,0.13617 l 0,0 0,0 0,0 c -0.0319,0.005 -0.0511,0.0122 -0.0623,0.018 -0.0111,0.006 -0.0144,0.0105 -0.0147,0.0108 0,0 0,0 0,0 -10e-6,1e-5 -10e-6,1e-5 -10e-6,1e-5 0,0 0,0 0,-1e-5 0,0 0,0 0,0 2.1e-4,-3.2e-4 0.003,-0.005 0.004,-0.0177 8.5e-4,-0.0126 -4.2e-4,-0.033 -0.009,-0.0644 l 0,0 0,0 0,0 c 0.0102,-0.0448 0.0318,-0.10731 0.0644,-0.18703 l 0,0 c 0.0644,-0.15747 0.17286,-0.38469 0.32109,-0.67688 l 0,0 c 0.28601,-0.56381 0.74073,-1.40845 1.31409,-2.4705 l 0,0 c 1.08664,-2.01284 2.68345,-4.95673 4.53911,-8.6557 l 0,0 c 3.005,-5.99283 7.57807,-15.55771 10.49483,-26.13134 1.18456,-4.29987 2.19373,-9.07105 2.40725,-13.972505 l -10e-6,0 10e-6,-6e-6 0,0 c 0.16665,-4.013494 -0.16692,-8.302992 -1.73631,-12.168951 l 0,0 c -1.41165,-3.525333 -3.99883,-6.711373 -7.37928,-8.841716 l 0,0 c -4.30166,-2.746862 -9.59957,-3.896183 -15.13582,-4.335096 -0.219,-0.01531 -0.43836,-0.02971 -0.65801,-0.0431 -5.3422,-0.325528 -10.52848,-0.02549 -14.96174,2.030849 -1.74784,0.799768 -3.33955,1.86673 -4.63995,3.179791 l 0,0 c -1.25475,1.258559 -2.25677,2.758675 -2.99781,4.356151 l 0,0 c -1.70437,3.631665 -2.07669,7.819473 -1.98213,11.74 l 0,0 c 0.13559,4.961931 1.10189,9.827341 2.23161,14.224051 2.83944,11.03088 7.38002,21.19609 10.33452,27.54804 l 0,0 0,0 c 1.8423,3.95898 3.43527,7.13936 4.51201,9.30413 l 0,0 c 0.57093,1.14783 1.02145,2.05816 1.30526,2.66825 l 0,0 0,0 c 0.14686,0.31568 0.25385,0.56077 0.31685,0.73021 l 0,0 c 0,0 0,0 0,0 0.0319,0.0859 0.0528,0.15293 0.0623,0.20069 0,0 0,0 0,0 0.005,0.024 0.007,0.0432 0.006,0.0575 -0.001,0.0147 -0.005,0.0242 -0.0126,0.0286 z"
       id="path5949"
       inkscape:connector-curvature="0"
       inkscape:path-effect="#path-effect5951"
       inkscape:original-d="m -348.09719,149.5741 c 0,0 -49.08413,-81.532855 6.58344,-77.344312 54.06141,4.067692 5.01607,78.841022 5.01607,78.841022"
       sodipodi:nodetypes="csc" />
    <path
       style="fill:none;stroke:#626262;stroke-width:2.64583334;stroke-linecap:round;stroke-linejoin:round;stroke-opacity:1;stroke-miterlimit:4;stroke-dasharray:none"
       d="m -350.70264,73.705277 c 0,0 15.60478,22.556457 -10.57661,46.125683"
       id="path5957"
       inkscape:connector-curvature="0" />
    <path
       inkscape:connector-curvature="0"
       id="path5959"
       d="m -330.38951,73.705277 c 0,0 -15.60478,22.556457 10.57661,46.125683"
       style="fill:none;stroke:#626262;stroke-width:2.64583325;stroke-linecap:round;stroke-linejoin:round;stroke-miterlimit:4;stroke-dasharray:none;stroke-opacity:1" />
    <rect
       style="opacity:1;vector-effect:none;fill:#626262;fill-opacity:1;stroke:#626262;stroke-width:0;stroke-linecap:round;stroke-linejoin:round;stroke-miterlimit:4;stroke-dasharray:none;stroke-dashoffset:0;stroke-opacity:1"
       id="rect5965"
       width="16.404167"
       height="20.108334"
       x="-495.56458"
       y="150.68541" />
    <path
       style="fill:#000000;stroke:none;stroke-width:0.26458332px;stroke-linecap:butt;stroke-linejoin:miter;stroke-opacity:1"
       d="m -493.58317,150.68141 c -0.007,0.005 -0.0163,0.006 -0.0286,0.004 -0.014,-0.005 -0.0315,-0.0151 -0.0526,-0.0299 0,0 0,0 0,0 -0.042,-0.0295 -0.0979,-0.0781 -0.16744,-0.1457 0,0 0,0 0,0 l 0,0 c -0.13798,-0.13416 -0.32795,-0.34139 -0.56886,-0.62261 l 0,0 c -0.47237,-0.55141 -1.1272,-1.37085 -1.95285,-2.46714 l 0,0 c -1.54532,-2.05185 -3.7063,-5.09389 -6.20376,-9.00224 l 0,0 c -3.97236,-6.21314 -9.94204,-16.23501 -13.91731,-27.74636 v 0 c -1.56817,-4.53322 -2.94717,-9.67085 -3.31084,-15.085505 l 0,0 0,-8e-6 0,0 c -0.30421,-4.36271 0.13513,-9.178181 2.2296,-13.546295 l 0,0 c 0.98603,-2.031131 2.33757,-3.916558 4.00562,-5.530331 h 0 c 1.81617,-1.750601 3.9515,-3.156105 6.25301,-4.233342 l 0,0 c 6.1433,-2.858839 13.00382,-3.633314 19.93476,-3.611044 -1e-5,0 0.0392,-1.17e-4 0.0392,-1.17e-4 6.93065,-0.01928 13.7886,0.756845 19.93273,3.610671 2.305,1.076782 4.44419,2.481881 6.2642,4.232944 l 0,0 c 1.67053,1.613158 3.02473,3.498529 4.01282,5.530424 l 0,0 c 2.09767,4.367465 2.5378,9.184022 2.23233,13.547422 l 0,0 c -0.3652,5.415411 -1.74779,10.553191 -3.31954,15.086011 -3.98522,11.51281 -9.96815,21.53423 -13.94842,27.74622 0,0 0,0 0,0 l 0,0 c -2.50289,3.90835 -4.66844,6.9503 -6.21687,9.00194 l 0,0 c -0.82737,1.09625 -1.48351,1.91562 -1.95678,2.46696 l 0,0 c -0.24138,0.28118 -0.43169,0.48838 -0.56991,0.62251 l 0,0 c 0,0 0,0 0,0 -0.087,0.0548 -0.14753,0.1 -0.18757,0.13097 l 0,0 c 0,0 0,0 0,0 -0.0244,0.0123 -0.0404,0.0234 -0.0504,0.0315 -0.005,0.004 -0.008,0.007 -0.0107,0.01 -0.003,0.004 -0.003,0.004 -0.003,0.004 0,0 0,0 -3.4e-4,-2.6e-4 0.005,-0.007 0.007,-0.0111 0.009,-0.017 0.005,-0.0119 0.0109,-0.0303 0.0157,-0.0573 0,0 0,0 0,0 l 0,0 c 0.0181,-0.0473 0.0435,-0.11789 0.07,-0.2173 0,0 0,0 0,0 l 0,0 c 0.0862,-0.1702 0.22675,-0.4157 0.41639,-0.73115 l 0,0 c 0.3645,-0.60632 0.94008,-1.51894 1.6602,-2.66199 l 0,0 c 1.35501,-2.15083 3.35491,-5.3228 5.67056,-9.28837 l 0,0 c 0,0 0,0 10e-6,0 3.67071,-6.28942 9.37376,-16.46791 13.04738,-27.73109 1.45059,-4.45574 2.72038,-9.42905 2.99284,-14.539326 l 0,0 c 0.20733,-4.101396 -0.20873,-8.514062 -2.10963,-12.294562 l 0,0 c -0.87404,-1.762567 -2.06828,-3.399702 -3.52791,-4.790307 l 0,0 c -1.58926,-1.520552 -3.50265,-2.753243 -5.58936,-3.724135 -5.61214,-2.627645 -12.08634,-3.297461 -18.83455,-3.322099 -2e-5,0 -0.0381,-1.32e-4 -0.0381,-1.32e-4 -6.74836,0.02228 -13.22414,0.690121 -18.8339,3.321748 l 0,0 c -2.08297,0.970984 -3.99255,2.203819 -5.57825,3.723736 -1.45738,1.390964 -2.64932,3.02823 -3.52174,4.790396 l 0,0 c -1.89843,3.78193 -2.31393,8.194276 -2.1077,12.295688 l 0,0 10e-6,7e-6 0,0 c 0.27106,5.110146 1.53739,10.083596 2.9845,14.539796 3.664,11.26194 9.35374,21.44069 13.01651,27.73096 l 0,0 c 2.31024,3.96543 4.30545,7.13723 5.65732,9.28807 l 0,0 c 0.71841,1.14299 1.29259,2.05553 1.65618,2.66181 l 0,0 c 0.18916,0.31542 0.32937,0.56089 0.41527,0.73105 l 0,0 c 0,0 0,0 0,0 0.0436,0.0863 0.0736,0.15402 0.0895,0.20258 0,0 0,0 0,0 0.008,0.0244 0.0125,0.0441 0.0133,0.0589 -0.001,0.0125 -0.005,0.0213 -0.0118,0.0263 z"
       id="path5973"
       inkscape:connector-curvature="0"
       inkscape:path-effect="#path-effect5975"
       inkscape:original-d="m -493.58018,150.68541 c 0,0 -60.37541,-80.697911 6.21769,-80.697918 66.72539,-7e-6 6.21771,80.697918 6.21771,80.697918"
       sodipodi:nodetypes="csc" />
  </g>
</svg>
